<svg xmlns="http://www.w3.org/2000/svg" viewBox="0 0 183.83 183.83"><defs><style>.cls-1{fill:#d6dde1;}.cls-2{fill:#4c3223;}.cls-3{fill:#ffba7f;}.cls-4{fill:#f2a068;}.cls-5{fill:#fcaf75;}.cls-6{fill:#683c11;}.cls-7{fill:#432918;}.cls-16,.cls-8{fill:#fff;}.cls-9{fill:#ce3e3e;}.cls-10{fill:#ff927d;}.cls-11{fill:#aabf52;}.cls-12{fill:#ff422a;}.cls-13{fill:#3c3c3b;}.cls-14{fill:none;stroke:#3c3c3b;stroke-miterlimit:10;stroke-width:4px;}.cls-15{fill:#1d1d1b;}.cls-16{opacity:0.2;}</style></defs><g id="Layer_2" data-name="Layer 2"><g id="Capa_1" data-name="Capa 1"><circle class="cls-1" cx="91.92" cy="91.92" r="91.92" transform="translate(-28.43 42.78) rotate(-22.79)"/><path class="cls-2" d="M91.6,7.36c-12.27,0-22.22,7.19-22.22,16.06s10,16.06,22.22,16.06,22.22-7.19,22.22-16.06S103.87,7.36,91.6,7.36Z"/><path class="cls-3" d="M142.7,158.91c-8.13-5.09-31.88-4.16-34.5-12.49s0-24.06,0-24.06l-16.07-5.49-16.07,5.49s2.62,15.73,0,24.06-26.37,7.4-34.5,12.49a17.72,17.72,0,0,0-5.08,5.78,91.93,91.93,0,0,0,111.16-.23A17.35,17.35,0,0,0,142.7,158.91Z"/><path class="cls-4" d="M76.06,122.36a86.35,86.35,0,0,1,1.11,11.31c3.27,3.72,14.71,4.23,14.87,4.23s11.59-.61,15.06-4.38a85.37,85.37,0,0,1,1.1-11.16l-15.94-11Z"/><path class="cls-3" d="M48,74.94c-5,1.46-3.87,9-3.87,11.84s4.2,12.77,7,13.86c7.15,2.78,7.16-7.65,7.16-7.65V80.87S53,73.48,48,74.94Z"/><path class="cls-5" d="M136.14,74.94c-5-1.47-10.32,5.91-10.32,5.91V93s0,10.75,7.15,7.66c2.77-1.21,7-11.06,7-13.87S141.18,76.4,136.14,74.94Z"/><path class="cls-3" d="M116.15,36c-6.5-5.41-15.36-8.11-24.23-8.11S74.18,30.62,67.69,36C54.17,47.3,53.76,59.7,53.76,77.73S55,100.85,55,100.85s3.23,13.3,6,16.8,10.51,8.48,19.74,13.81c6,3.46,10.69,3.49,11.16,3.43s5.16,0,11.16-3.43c9.23-5.33,16.94-10.31,19.74-13.81s6-16.8,6-16.8,1.23-5.09,1.23-23.12S129.67,47.3,116.15,36Z"/><path class="cls-5" d="M116.15,36c-6.5-5.41-15.36-8.11-24.23-8.11v107c.47.06,5.16,0,11.16-3.43,9.23-5.33,16.94-10.31,19.74-13.81s6-16.8,6-16.8,1.23-5.09,1.23-23.12S129.67,47.3,116.15,36Z"/><path class="cls-6" d="M75,80.08a4.58,4.58,0,1,0,4.58,4.58A4.58,4.58,0,0,0,75,80.08Z"/><path class="cls-7" d="M109.83,70.73c-5.11-.06-8.5,3.58-9.87,5.38s4.92-1.13,9.56-1.63a26.29,26.29,0,0,1,13.08,2.34S117.07,70.8,109.83,70.73Z"/><path class="cls-7" d="M108.83,80.08a4.58,4.58,0,1,0,4.58,4.58A4.58,4.58,0,0,0,108.83,80.08Z"/><path class="cls-7" d="M75,80a4.58,4.58,0,1,0,4.58,4.58A4.58,4.58,0,0,0,75,80Z"/><path class="cls-7" d="M110.24,82.24l-.28,4s3.87-.22,5.24-1.14,1.52-3.57.87-4.24A7.52,7.52,0,0,1,110.24,82.24Z"/><path class="cls-7" d="M74,70.69c-7.24.07-12.76,6.09-12.76,6.09a26.29,26.29,0,0,1,13.08-2.34c4.63.5,10.92,3.44,9.56,1.63S79.11,70.63,74,70.69Z"/><path class="cls-7" d="M67.76,80.81c-.64.67-.49,3.33.87,4.25s5.25,1.13,5.25,1.13l-.28-4A7.54,7.54,0,0,1,67.76,80.81Z"/><polygon class="cls-8" points="92.14 110.91 85.47 110.82 80.65 110.69 80.67 111.16 86.37 115.77 98.55 114.97 103.81 111.17 99.63 110.71 92.14 110.91"/><path class="cls-8" d="M92,111.19l-8.24-.39-.69.23s-.36,2.68,9.26,2.62c9.79-.06,8.68-2.55,8.68-2.55Z"/><path class="cls-9" d="M92.61,109.61c-.81.09-1.51-.71-3.57-.64a93.48,93.48,0,0,0-9.28,1.42s1.72,1.61,12.56,1.68c11.73.07,12.29-1.4,12.29-1.4s-6-1.78-8.17-1.71A21.45,21.45,0,0,0,92.61,109.61Z"/><path class="cls-9" d="M92.28,115.19a17.08,17.08,0,0,1-11.16-4.33l-1.36-.47s3.93,8.83,12.52,8.75a12.82,12.82,0,0,0,12.33-8.47l-1.29.43S99.88,115.13,92.28,115.19Z"/><ellipse class="cls-10" cx="67.9" cy="96.47" rx="6.66" ry="4.56"/><path class="cls-10" d="M116.48,91.92c-3.68,0-6.66,2-6.66,4.55s3,4.56,6.66,4.56,6.67-2,6.67-4.56S120.16,91.92,116.48,91.92Z"/><path class="cls-11" d="M92.23,183.28Z"/><path class="cls-12" d="M67.39,171.73c-12.32-3.7-9.07-17.36-9.07-17.36-6.52,1.22-13.17,2.29-16.76,4.54a17.72,17.72,0,0,0-5.08,5.78,91.54,91.54,0,0,0,55.44,18.59h.31C89.46,176.33,79.72,175.43,67.39,171.73Z"/><path class="cls-12" d="M142.7,158.91c-3.59-2.25-10.23-3.32-16.75-4.54,0,0,3.25,13.66-9.08,17.36S94.8,176.33,92,183.28a91.53,91.53,0,0,0,55.6-18.82A17.47,17.47,0,0,0,142.7,158.91Z"/><path class="cls-7" d="M91.82,25.59A49.75,49.75,0,0,0,60.56,38.7s-12.85,13.92-9.39,36c.93,6,3.22,15.7,3.22,15.7A80.45,80.45,0,0,1,60.9,67.51a119.22,119.22,0,0,0,46-19.5s16.79,18.5,18.14,22.08c1.58,4.2,3.67,19.92,3.67,19.92s3.12-8.88,3.67-15.28c2-23.74-10.17-37.28-10.17-37.28A40.17,40.17,0,0,0,91.82,25.59Z"/><path class="cls-13" d="M55.19,100.75A2.08,2.08,0,0,1,53.25,103l-3.58.23a2.07,2.07,0,0,1-2.21-1.94L45.59,72.78a2.08,2.08,0,0,1,1.94-2.22l3.58-.23a2.07,2.07,0,0,1,2.21,1.94Z"/><path class="cls-13" d="M48.93,75.24c-5.76.37-10.09,5.86-9.67,12.25s5.43,11.27,11.19,10.9Z"/><path class="cls-13" d="M128.23,100.75a2.1,2.1,0,0,0,1.94,2.22l3.59.23a2.08,2.08,0,0,0,2.21-1.94l1.86-28.48a2.08,2.08,0,0,0-1.94-2.22l-3.58-.23a2.07,2.07,0,0,0-2.21,1.94Z"/><path class="cls-13" d="M134.49,75.24c5.76.37,10.1,5.86,9.68,12.25S138.74,98.76,133,98.39Z"/><path class="cls-14" d="M46.34,86.26s-2.41-15.48-1.5-25.21c3-31.92,36.9-33.43,47-33.49,11.71-.07,40.45,1.9,45.26,27.49,2.46,13.12,0,31.21,0,31.21"/><path class="cls-14" d="M137.6,93.13s-2.23,23.31-11.89,30.05-28.86,5.25-28.86,5.25"/><rect class="cls-15" x="92.02" y="124.45" width="16.58" height="7.78" rx="1.82"/><path class="cls-15" d="M97,82.42s-5.28-2.57-10.46-.33c-1.43.62,1,3.89,1,3.89s4.51-2.2,7.73.27C96.49,87.19,97,82.42,97,82.42Z"/><path class="cls-15" d="M88.34,85.87l-.93-3.38s-1.67-5.35-19.27-5.39-17,6.24-17,6.24S49.89,99.45,69.63,99.49,88.34,85.87,88.34,85.87Zm-19.22,12c-14.05,0-14.76-9.91-14.66-12.09.18-3.62,2.12-6.92,14.72-6.88,10.48,0,16.93,2.29,16.91,6.44C86.07,90,83.18,97.88,69.12,97.84Z"/><path class="cls-15" d="M131.93,83.53s.61-6.28-17-6.32-19.3,5.3-19.3,5.3l-1,3.37S93.59,99.55,113.33,99.6,131.93,83.53,131.93,83.53ZM113.85,98C99.79,97.91,96.94,90,97,85.33c0-4.14,6.46-6.39,17-6.36,12.6,0,14.51,3.33,14.67,7C128.67,88.1,127.91,98,113.85,98Z"/><path class="cls-16" d="M86.09,85.31c0-4.15-6.43-6.42-16.91-6.44-12.6,0-14.54,3.26-14.72,6.88-.1,2.18.61,12.06,14.66,12.09S86.07,90,86.09,85.31Z"/><path class="cls-16" d="M97,85.33c0-4.14,6.46-6.39,17-6.36,12.6,0,14.51,3.33,14.67,7,.09,2.18-.67,12.06-14.73,12S96.94,90,97,85.33Z"/></g></g></svg>