<svg xmlns="http://www.w3.org/2000/svg" viewBox="0 0 183.83 183.83"><defs><style>.cls-1{fill:#d6dde1;}.cls-2{fill:#ffba7f;}.cls-3{fill:#f2a068;}.cls-4{fill:#59b6c6;}.cls-5{fill:#fcaf75;}.cls-6{fill:#683c11;}.cls-7{fill:#432918;}.cls-8{fill:#fff;}.cls-9{fill:#e28156;}.cls-10{fill:#492e1f;}.cls-11{fill:#ffd20a;}.cls-12{fill:#3c3c3b;}.cls-13{fill:none;stroke:#3c3c3b;stroke-miterlimit:10;stroke-width:4px;}.cls-14{fill:#575756;}</style></defs><g id="Layer_2" data-name="Layer 2"><g id="Capa_1" data-name="Capa 1"><path class="cls-1" d="M91.92,0a91.92,91.92,0,1,0,91.91,91.92A91.91,91.91,0,0,0,91.92,0Z"/><path class="cls-2" d="M149.65,159.46c-8.14-5.09-36.75-4.16-39.36-12.49a32.83,32.83,0,0,1-1.16-8.82,96.63,96.63,0,0,1,1.16-15.24l-18.16-5.49L74,122.91a96.18,96.18,0,0,1,1.15,15.52A32,32,0,0,1,74,147c-2.61,8.33-31.23,7.4-39.36,12.49a12.23,12.23,0,0,0-2.52,2.25A91.94,91.94,0,0,0,152,161.5,11.91,11.91,0,0,0,149.65,159.46Z"/><path class="cls-3" d="M92.13,117.65l-18.46,5.41a105.43,105.43,0,0,1,1.46,17c3.26,3.72,16.63,4.19,16.78,4.18s13.76-.69,17.22-4.46a108.91,108.91,0,0,1,1.41-16.66Z"/><path class="cls-4" d="M92.24,183.83Z"/><path class="cls-4" d="M74,146.53C71.3,155,42.34,154,34.11,159.17a12.25,12.25,0,0,0-2.45,2.16,91.57,91.57,0,0,0,60.26,22.5h.32L85.3,158.55C76.33,158.56,74.33,145.31,74,146.53Z"/><path class="cls-4" d="M150.51,159.17c-8.23-5.15-36.87-3.61-39.52-12-.39-1.26-2.8,11.41-11.81,11.42l-6.94,25.28a91.57,91.57,0,0,0,60.37-22.89A11.1,11.1,0,0,0,150.51,159.17Z"/><path class="cls-2" d="M48,75.49c-5,1.46-3.87,9-3.87,11.84s4.21,12.77,7,13.86c7.15,2.78,7.16-7.65,7.16-7.65V81.42S53,74,48,75.49Z"/><path class="cls-5" d="M136.14,75.49c-5-1.47-10.32,5.91-10.32,5.91V93.54s0,10.75,7.15,7.66c2.77-1.2,7-11.07,7-13.87S141.18,77,136.14,75.49Z"/><path class="cls-2" d="M116.15,36.58c-13-10.82-35.48-10.82-48.46,0C54.17,47.85,53.76,60.25,53.76,78.28S55,101.4,55,101.4s2.45,13.3,5.24,16.8,5.61,5.24,13.66,12.24c7.66,6.66,11.64,7.3,17.6,7.34h1c6,0,10-.68,17.61-7.34,8-7,10.85-8.74,13.65-12.24S129,101.4,129,101.4l0,0c0-.15,0-.24,0-.24s1.11-4.83,1.11-22.86S129.67,47.85,116.15,36.58Z"/><path class="cls-5" d="M116.15,36.58c-6.5-5.41-15.37-8.12-24.24-8.11V137.78h.53c6,0,10-.68,17.61-7.34,8-7,10.85-8.74,13.65-12.24S129,101.4,129,101.4l0,0c0-.15,0-.24,0-.24s1.11-4.83,1.11-22.86S129.67,47.85,116.15,36.58Z"/><path class="cls-6" d="M74.89,80.71a4.6,4.6,0,1,0,4.6,4.6A4.6,4.6,0,0,0,74.89,80.71Z"/><path class="cls-6" d="M109.9,71.58c-5.13,0-8.54,4.33-9.92,6.15s5.66-1.3,10.33-1.65c5.26-.39,13.15,3.08,13.15,3.08S117.18,71.66,109.9,71.58Z"/><path class="cls-7" d="M108.9,80.71a4.6,4.6,0,1,0,4.6,4.6A4.59,4.59,0,0,0,108.9,80.71Z"/><path class="cls-6" d="M73.92,71.54c-7.28.07-13.56,7.58-13.56,7.58S68.25,75.65,73.51,76c4.67.35,11.7,3.46,10.33,1.64S79.05,71.49,73.92,71.54Z"/><path class="cls-7" d="M74.92,80.67a4.6,4.6,0,1,0,4.6,4.6A4.6,4.6,0,0,0,74.92,80.67Z"/><polygon class="cls-8" points="92.22 111.13 85.03 111.04 79.83 110.9 79.86 111.41 86.01 116.37 98.8 117.42 104.81 111.41 100.3 110.92 92.22 111.13"/><path class="cls-8" d="M92.07,111.43,83.18,111l-.74.24s-.38,2.89,10,2.83c10.56-.07,9.36-2.75,9.36-2.75Z"/><path class="cls-9" d="M92.73,110.46c-.87.09-1.63-.77-3.85-.69-2.78.09-10,.8-10,.8s1.86,1.74,13.54,1.81c12.65.08,13.25-1.5,13.25-1.5a68.66,68.66,0,0,0-8.8-1.12A23.56,23.56,0,0,0,92.73,110.46Z"/><path class="cls-9" d="M92.38,116.44c-7.21.06-12-5.36-12-5.36l-1.46-.51s4.23,8.76,13.5,8.68c10.5-.09,13.29-8.37,13.29-8.37l-1.39.46S100.57,116.38,92.38,116.44Z"/><path class="cls-4" d="M105.87,150.9,92,153.16l-12.78-3.25L54.67,160.18l-.42,15.6a92.14,92.14,0,0,0,75.62-.13l-.3-15.44Z"/><path class="cls-10" d="M96.7,183.83v-.12q-2.37.12-4.77.12Z"/><path class="cls-10" d="M87.78,183.83h4.14c-1.39,0-2.76,0-4.13-.09Z"/><path class="cls-11" d="M89,166.46l-1.23,17.28c1.37.06,2.74.09,4.13.09q2.4,0,4.77-.12l-1.47-17.25Z"/><path class="cls-11" d="M92,152.66s-6.14.51-7.65,3.29C81,162.08,89,167.34,89,167.34h6.2s6.63-4.76,4.76-9.38C98.46,154.25,92,152.66,92,152.66Z"/><polygon class="cls-4" points="67.69 150.09 80.05 164.71 92.38 152.56 72.93 139.87 67.69 150.09"/><polygon class="cls-4" points="91.68 152.55 104.01 164.72 115.49 149.6 111.15 139.88 91.68 152.55"/><path class="cls-6" d="M102.41,23.09c-17-3.94-26.49,2.65-26.49,2.65a3.27,3.27,0,0,1-.57-4.58c-4.73.64-6,5.51-7.52,9.24a11.83,11.83,0,0,0-8.52.5s3.8,2.93-.29,6.3c-10.22,8.43-7,18.1-6.18,20.1,0,11.61.29,28,1.86,26.74,1.28-1,3.47-9.76,5.47-19C67.24,57.76,72.71,53.66,74,47.9c0,0,8,10.35,18.75,12.78,8.88,2,19.87,3.73,24.53,2.8-4-4-5.16-11.6-5.16-11.6s6.21,11.36,12,12.35c2,9.76,4.28,19.72,5.36,20.63,1.57,1.32,1.72-17.25,1.68-27.56C137,39.2,114.47,25.88,102.41,23.09Z"/><path class="cls-6" d="M127.28,79.46s-.12,9.12-.12,15.37-2.82,13.37-5.55,15.06c-7.12,4.41-10.07-.6-10.07-.6s-2.72-3.94-9.69-6.49a11.52,11.52,0,0,0-9.92.79l0,0,0,0A11.52,11.52,0,0,0,82,102.8c-7,2.55-9.69,6.49-9.69,6.49s-3,5-10.07.6c-2.73-1.69-5.55-8.81-5.55-15.06s-.12-15.37-.12-15.37l-3,.37S51.16,104.66,56.43,115c2.6,5.13,11.45,17,22.44,23.75a24.46,24.46,0,0,0,13,3.47,24.46,24.46,0,0,0,13-3.47c11-6.72,19.84-18.62,22.44-23.75,5.27-10.38,2.93-35.21,2.93-35.21ZM105,120.86c-4.51,3.89-7.3,5.46-10.06,3.29a12.06,12.06,0,0,1-3-3.32l0,0,0,0a12.06,12.06,0,0,1-3,3.32c-2.77,2.17-5.55.6-10.06-3.29s-3-11.11,2.22-11.46c11.83-.81,10.8-2.71,10.8-2.71s0,0,0,0,0,0,0,0-1,1.9,10.79,2.71C107.92,109.75,109.46,117,105,120.86Z"/><path class="cls-12" d="M55.4,102.29a2.07,2.07,0,0,1-1.94,2.21l-3.58.24a2.09,2.09,0,0,1-2.22-1.94L45.8,74.31a2.08,2.08,0,0,1,1.94-2.21l3.58-.23a2.07,2.07,0,0,1,2.21,1.94Z"/><path class="cls-12" d="M49.14,76.77c-5.76.38-10.09,5.87-9.68,12.26s5.43,11.27,11.2,10.89Z"/><path class="cls-12" d="M128.44,102.29a2.07,2.07,0,0,0,1.94,2.21l3.58.24a2.07,2.07,0,0,0,2.21-1.94L138,74.31a2.08,2.08,0,0,0-1.94-2.21l-3.58-.23a2.07,2.07,0,0,0-2.21,1.94Z"/><path class="cls-12" d="M134.7,76.77c5.76.38,10.09,5.87,9.68,12.26S139,100.3,133.18,99.92Z"/><path class="cls-13" d="M46.55,87.8s-2.41-15.49-1.5-25.21C48,30.66,82,29.16,92,29.1c11.71-.07,40.45,1.9,45.25,27.49,2.47,13.12,0,31.21,0,31.21"/><path class="cls-13" d="M137.8,94.67s-2.22,23.31-11.89,30S97.05,130,97.05,130"/><rect class="cls-14" x="92.23" y="125.99" width="16.58" height="7.78" rx="1.82"/></g></g></svg>