<svg xmlns="http://www.w3.org/2000/svg" viewBox="0 0 183.83 183.83"><defs><style>.cls-1{fill:#d6dde1;}.cls-2{fill:#ffba7f;}.cls-3{fill:#f2a068;}.cls-4{fill:#fcaf75;}.cls-5{fill:#683c11;}.cls-6{fill:#936037;}.cls-7{fill:#432918;}.cls-8{fill:#fff;}.cls-9{fill:#e28156;}.cls-10{fill:#aabf52;}.cls-11{fill:#3c3c3b;}.cls-12{fill:none;stroke:#3c3c3b;stroke-miterlimit:10;stroke-width:4px;}.cls-13{fill:#1d1d1b;}</style></defs><g id="Layer_2" data-name="Layer 2"><g id="Capa_1" data-name="Capa 1"><circle class="cls-1" cx="91.92" cy="91.92" r="91.92"/><path class="cls-2" d="M149.76,159.46C141.63,154.37,113,155.3,110.4,147a32.79,32.79,0,0,1-1.15-8.82,97.44,97.44,0,0,1,1.15-15.24l-18.15-5.49L74.1,122.91a96,96,0,0,1,1.15,15.52A32.43,32.43,0,0,1,74.1,147c-2.61,8.33-31.23,7.4-39.36,12.49a12.21,12.21,0,0,0-2.57,2.3A91.91,91.91,0,0,0,152,161.44,11.38,11.38,0,0,0,149.76,159.46Z"/><path class="cls-3" d="M92.25,114.65l-18.47,5.41a104.88,104.88,0,0,1,1.47,17c3.26,3.72,16.62,4.19,16.78,4.18s13.76-.69,17.22-4.46a109.54,109.54,0,0,1,1.4-16.66Z"/><path class="cls-2" d="M48.12,75.49c-5,1.46-3.87,9-3.87,11.83s4.21,12.78,7,13.87c7.15,2.78,7.16-7.65,7.16-7.65V81.41S53.16,74,48.12,75.49Z"/><path class="cls-4" d="M136.26,75.49c-5-1.47-10.32,5.91-10.32,5.91V93.54s0,10.75,7.15,7.66c2.77-1.21,7-11.07,7-13.88S141.3,77,136.26,75.49Z"/><path class="cls-2" d="M116.27,36.58c-13-10.82-35.48-10.82-48.47,0C54.29,47.85,53.88,60.25,53.88,78.28S55.1,101.4,55.1,101.4s2.45,13.3,5.25,16.8S66,123.44,74,130.44c7.65,6.66,11.64,7.3,17.6,7.34h.94c6,0,10-.68,17.61-7.34,8-7,10.86-8.74,13.66-12.24s5.25-16.8,5.25-16.8l0,0,.05-.24s1.11-4.84,1.11-22.87S129.79,47.85,116.27,36.58Z"/><path class="cls-4" d="M116.27,36.58c-6.5-5.41-15.37-8.12-24.24-8.11V137.78h.52c6,0,10-.68,17.61-7.34,8-7,10.86-8.74,13.66-12.24s5.25-16.8,5.25-16.8l0,0,.05-.24s1.11-4.84,1.11-22.87S129.79,47.85,116.27,36.58Z"/><path class="cls-5" d="M75,80.71a4.6,4.6,0,1,0,4.6,4.6A4.61,4.61,0,0,0,75,80.71Z"/><path class="cls-6" d="M110,71.58c-5.14,0-8.55,4.33-9.92,6.15s5.66-1.3,10.33-1.65c5.26-.39,13.14,3.08,13.14,3.08S117.29,71.65,110,71.58Z"/><path class="cls-7" d="M109,80.71a4.6,4.6,0,1,0,4.6,4.6A4.6,4.6,0,0,0,109,80.71Z"/><path class="cls-6" d="M74,71.54c-7.27.07-13.55,7.58-13.55,7.58S68.36,75.65,73.62,76c4.67.35,11.71,3.46,10.33,1.64S79.17,71.49,74,71.54Z"/><path class="cls-7" d="M75,80.66a4.61,4.61,0,1,0,4.6,4.61A4.62,4.62,0,0,0,75,80.66Z"/><polygon class="cls-8" points="92.34 111.13 85.15 111.04 79.95 110.9 79.97 111.41 86.12 116.37 98.91 117.42 104.92 111.41 100.41 110.92 92.34 111.13"/><path class="cls-8" d="M92.18,111.43,83.3,111l-.74.25s-.39,2.89,10,2.83c10.55-.07,9.36-2.75,9.36-2.75Z"/><path class="cls-9" d="M92.85,110.46c-.88.09-1.63-.77-3.85-.7-2.79.1-10,.81-10,.81s1.85,1.74,13.54,1.81c12.64.08,13.25-1.5,13.25-1.5A70,70,0,0,0,97,109.75,23.92,23.92,0,0,0,92.85,110.46Z"/><path class="cls-9" d="M92.49,116.44c-7.2.06-12-5.36-12-5.36L79,110.57s4.23,8.76,13.49,8.68c10.51-.09,13.3-8.37,13.3-8.37l-1.39.46S100.68,116.38,92.49,116.44Z"/><path class="cls-10" d="M149.76,159.46c-6.2-3.88-24.62-4.39-34-8L92,174.59,69.56,151.08h0c-9,4.09-28.35,4.34-34.8,8.38a12.21,12.21,0,0,0-2.57,2.3A91.91,91.91,0,0,0,152,161.44,11.38,11.38,0,0,0,149.76,159.46Z"/><path class="cls-6" d="M117.47,123.33c-3.47,2.35-8,7.24-16.34,7.64-4.5.22-9.08-9.48-9.08-9.48s-2.31,7.63-6.13,9-9.52-1.36-14.23-4.2-11.1-7.81-11.1-7.81,2.51,3.62,9.57,9.23C77,133.17,84.68,140,92.49,140c5.81,0,11.78-2.89,17-7.12,12.06-9.71,15.23-16.23,15.23-16.23A48.19,48.19,0,0,1,117.47,123.33Z"/><path class="cls-6" d="M54.83,88.78c.33,1.77,2.43-22.6,9.35-35.75,3.92-7.45,15.43-10.5,15.43-10.5L67.51,34.9S47.14,47.4,54.83,88.78Z"/><path class="cls-6" d="M117,34.9l-12.1,7.63s11.52,3,15.44,10.5c6.92,13.15,9,37.52,9.34,35.75C137.4,47.4,117,34.9,117,34.9Z"/><path class="cls-11" d="M55.92,102.41a2.09,2.09,0,0,1-2,2.21l-3.58.23a2.08,2.08,0,0,1-2.21-1.94L46.31,74.43a2.08,2.08,0,0,1,1.94-2.21L51.84,72a2.08,2.08,0,0,1,2.21,1.94Z"/><path class="cls-11" d="M49.65,76.89c-5.76.37-10.09,5.86-9.67,12.26S45.41,100.41,51.17,100Z"/><path class="cls-11" d="M129,102.41a2.08,2.08,0,0,0,1.94,2.21l3.58.23a2.07,2.07,0,0,0,2.21-1.94l1.87-28.48a2.07,2.07,0,0,0-1.94-2.21L133,72a2.08,2.08,0,0,0-2.22,1.94Z"/><path class="cls-11" d="M135.22,76.89c5.76.37,10.09,5.86,9.67,12.26S139.46,100.41,133.7,100Z"/><path class="cls-12" d="M47.07,87.91s-2.41-15.48-1.51-25.2c3-31.93,36.9-33.44,47-33.5,11.71-.07,40.45,1.9,45.25,27.5,2.46,13.11,0,31.2,0,31.2"/><path class="cls-12" d="M138.32,94.78s-2.22,23.31-11.89,30.05-28.86,5.25-28.86,5.25"/><rect class="cls-13" x="92.74" y="126.1" width="16.58" height="7.78" rx="1.82"/><path class="cls-6" d="M91.64,17.18s1.83,4.52-4.75,7.7C80.54,28,64.08,28.83,62.28,39,59.89,52.66,92,51,92,51c19.72,0,31.53-4.89,31.53-13.11C123.57,24.43,91.64,17.18,91.64,17.18Z"/></g></g></svg>